<mxfile host="app.diagrams.net" modified="2024-04-09T20:18:33.304Z" agent="Mozilla/5.0 (Macintosh; Intel Mac OS X 10_15_7) AppleWebKit/605.1.15 (KHTML, like Gecko) Version/17.1.2 Safari/605.1.15" etag="HJrVmZM5V0ktkFA9dXkQ" version="24.2.3" type="device">
  <diagram name="Page-1" id="c4acf3e9-155e-7222-9cf6-157b1a14988f">
    <mxGraphModel dx="1440" dy="1057" grid="1" gridSize="10" guides="1" tooltips="1" connect="1" arrows="1" fold="1" page="1" pageScale="1" pageWidth="850" pageHeight="1100" background="none" math="0" shadow="0">
      <root>
        <mxCell id="0" />
        <mxCell id="1" parent="0" />
        <mxCell id="17acba5748e5396b-20" value="Members" style="swimlane;html=1;fontStyle=0;childLayout=stackLayout;horizontal=1;startSize=26;fillColor=none;horizontalStack=0;resizeParent=1;resizeLast=0;collapsible=1;marginBottom=0;swimlaneFillColor=#ffffff;rounded=0;shadow=0;comic=0;labelBackgroundColor=none;strokeWidth=1;fontFamily=Verdana;fontSize=10;align=center;" parent="1" vertex="1">
          <mxGeometry x="1075" y="220" width="160" height="240" as="geometry" />
        </mxCell>
        <mxCell id="17acba5748e5396b-21" value="&lt;u&gt;MemberID&lt;/u&gt;" style="text;html=1;strokeColor=none;fillColor=none;align=left;verticalAlign=top;spacingLeft=4;spacingRight=4;whiteSpace=wrap;overflow=hidden;rotatable=0;points=[[0,0.5],[1,0.5]];portConstraint=eastwest;" parent="17acba5748e5396b-20" vertex="1">
          <mxGeometry y="26" width="160" height="26" as="geometry" />
        </mxCell>
        <mxCell id="17acba5748e5396b-24" value="Name" style="text;html=1;strokeColor=none;fillColor=none;align=left;verticalAlign=top;spacingLeft=4;spacingRight=4;whiteSpace=wrap;overflow=hidden;rotatable=0;points=[[0,0.5],[1,0.5]];portConstraint=eastwest;" parent="17acba5748e5396b-20" vertex="1">
          <mxGeometry y="52" width="160" height="26" as="geometry" />
        </mxCell>
        <mxCell id="bnMnMu4cnoLyWOuvSoI_-1" value="Email" style="text;html=1;strokeColor=none;fillColor=none;align=left;verticalAlign=top;spacingLeft=4;spacingRight=4;whiteSpace=wrap;overflow=hidden;rotatable=0;points=[[0,0.5],[1,0.5]];portConstraint=eastwest;" vertex="1" parent="17acba5748e5396b-20">
          <mxGeometry y="78" width="160" height="26" as="geometry" />
        </mxCell>
        <mxCell id="bnMnMu4cnoLyWOuvSoI_-3" value="Password" style="text;html=1;strokeColor=none;fillColor=none;align=left;verticalAlign=top;spacingLeft=4;spacingRight=4;whiteSpace=wrap;overflow=hidden;rotatable=0;points=[[0,0.5],[1,0.5]];portConstraint=eastwest;" vertex="1" parent="17acba5748e5396b-20">
          <mxGeometry y="104" width="160" height="26" as="geometry" />
        </mxCell>
        <mxCell id="bnMnMu4cnoLyWOuvSoI_-2" value="DateOfBirth" style="text;html=1;strokeColor=none;fillColor=none;align=left;verticalAlign=top;spacingLeft=4;spacingRight=4;whiteSpace=wrap;overflow=hidden;rotatable=0;points=[[0,0.5],[1,0.5]];portConstraint=eastwest;" vertex="1" parent="17acba5748e5396b-20">
          <mxGeometry y="130" width="160" height="26" as="geometry" />
        </mxCell>
        <mxCell id="bnMnMu4cnoLyWOuvSoI_-4" value="Gender" style="text;html=1;strokeColor=none;fillColor=none;align=left;verticalAlign=top;spacingLeft=4;spacingRight=4;whiteSpace=wrap;overflow=hidden;rotatable=0;points=[[0,0.5],[1,0.5]];portConstraint=eastwest;container=1;" vertex="1" parent="17acba5748e5396b-20">
          <mxGeometry y="156" width="160" height="26" as="geometry" />
        </mxCell>
        <mxCell id="bnMnMu4cnoLyWOuvSoI_-7" value="FitnessGoals" style="text;html=1;strokeColor=none;fillColor=none;align=left;verticalAlign=top;spacingLeft=4;spacingRight=4;whiteSpace=wrap;overflow=hidden;rotatable=0;points=[[0,0.5],[1,0.5]];portConstraint=eastwest;container=1;" vertex="1" parent="17acba5748e5396b-20">
          <mxGeometry y="182" width="160" height="26" as="geometry" />
        </mxCell>
        <mxCell id="bnMnMu4cnoLyWOuvSoI_-8" value="HealthMetrics" style="text;html=1;strokeColor=none;fillColor=none;align=left;verticalAlign=top;spacingLeft=4;spacingRight=4;whiteSpace=wrap;overflow=hidden;rotatable=0;points=[[0,0.5],[1,0.5]];portConstraint=eastwest;container=1;" vertex="1" parent="17acba5748e5396b-20">
          <mxGeometry y="208" width="160" height="26" as="geometry">
            <mxRectangle y="208" width="160" height="30" as="alternateBounds" />
          </mxGeometry>
        </mxCell>
        <mxCell id="bnMnMu4cnoLyWOuvSoI_-57" style="edgeStyle=orthogonalEdgeStyle;rounded=0;orthogonalLoop=1;jettySize=auto;html=1;entryX=0.5;entryY=0;entryDx=0;entryDy=0;endArrow=none;endFill=0;" edge="1" parent="1" source="bnMnMu4cnoLyWOuvSoI_-9" target="bnMnMu4cnoLyWOuvSoI_-56">
          <mxGeometry relative="1" as="geometry" />
        </mxCell>
        <mxCell id="bnMnMu4cnoLyWOuvSoI_-60" value="1" style="edgeLabel;html=1;align=center;verticalAlign=middle;resizable=0;points=[];" vertex="1" connectable="0" parent="bnMnMu4cnoLyWOuvSoI_-57">
          <mxGeometry x="-0.4353" y="3" relative="1" as="geometry">
            <mxPoint x="12" y="-4" as="offset" />
          </mxGeometry>
        </mxCell>
        <mxCell id="bnMnMu4cnoLyWOuvSoI_-9" value="Trainers" style="swimlane;html=1;fontStyle=0;childLayout=stackLayout;horizontal=1;startSize=26;fillColor=none;horizontalStack=0;resizeParent=1;resizeLast=0;collapsible=1;marginBottom=0;swimlaneFillColor=#ffffff;rounded=0;shadow=0;comic=0;labelBackgroundColor=none;strokeWidth=1;fontFamily=Verdana;fontSize=10;align=center;" vertex="1" parent="1">
          <mxGeometry x="460" y="380" width="160" height="160" as="geometry" />
        </mxCell>
        <mxCell id="bnMnMu4cnoLyWOuvSoI_-10" value="&lt;u&gt;TrainerID&lt;/u&gt;" style="text;html=1;strokeColor=none;fillColor=none;align=left;verticalAlign=top;spacingLeft=4;spacingRight=4;whiteSpace=wrap;overflow=hidden;rotatable=0;points=[[0,0.5],[1,0.5]];portConstraint=eastwest;" vertex="1" parent="bnMnMu4cnoLyWOuvSoI_-9">
          <mxGeometry y="26" width="160" height="26" as="geometry" />
        </mxCell>
        <mxCell id="bnMnMu4cnoLyWOuvSoI_-11" value="Name" style="text;html=1;strokeColor=none;fillColor=none;align=left;verticalAlign=top;spacingLeft=4;spacingRight=4;whiteSpace=wrap;overflow=hidden;rotatable=0;points=[[0,0.5],[1,0.5]];portConstraint=eastwest;" vertex="1" parent="bnMnMu4cnoLyWOuvSoI_-9">
          <mxGeometry y="52" width="160" height="26" as="geometry" />
        </mxCell>
        <mxCell id="bnMnMu4cnoLyWOuvSoI_-12" value="Email" style="text;html=1;strokeColor=none;fillColor=none;align=left;verticalAlign=top;spacingLeft=4;spacingRight=4;whiteSpace=wrap;overflow=hidden;rotatable=0;points=[[0,0.5],[1,0.5]];portConstraint=eastwest;" vertex="1" parent="bnMnMu4cnoLyWOuvSoI_-9">
          <mxGeometry y="78" width="160" height="26" as="geometry" />
        </mxCell>
        <mxCell id="bnMnMu4cnoLyWOuvSoI_-13" value="Password" style="text;html=1;strokeColor=none;fillColor=none;align=left;verticalAlign=top;spacingLeft=4;spacingRight=4;whiteSpace=wrap;overflow=hidden;rotatable=0;points=[[0,0.5],[1,0.5]];portConstraint=eastwest;" vertex="1" parent="bnMnMu4cnoLyWOuvSoI_-9">
          <mxGeometry y="104" width="160" height="26" as="geometry" />
        </mxCell>
        <mxCell id="bnMnMu4cnoLyWOuvSoI_-14" value="Specialization" style="text;html=1;strokeColor=none;fillColor=none;align=left;verticalAlign=top;spacingLeft=4;spacingRight=4;whiteSpace=wrap;overflow=hidden;rotatable=0;points=[[0,0.5],[1,0.5]];portConstraint=eastwest;" vertex="1" parent="bnMnMu4cnoLyWOuvSoI_-9">
          <mxGeometry y="130" width="160" height="30" as="geometry" />
        </mxCell>
        <mxCell id="bnMnMu4cnoLyWOuvSoI_-19" value="Admin" style="swimlane;html=1;fontStyle=0;childLayout=stackLayout;horizontal=1;startSize=26;fillColor=none;horizontalStack=0;resizeParent=1;resizeLast=0;collapsible=1;marginBottom=0;swimlaneFillColor=#ffffff;rounded=0;shadow=0;comic=0;labelBackgroundColor=none;strokeWidth=1;fontFamily=Verdana;fontSize=10;align=center;" vertex="1" parent="1">
          <mxGeometry x="1020" y="820" width="160" height="140" as="geometry" />
        </mxCell>
        <mxCell id="bnMnMu4cnoLyWOuvSoI_-20" value="&lt;u&gt;AdminID&lt;/u&gt;" style="text;html=1;strokeColor=none;fillColor=none;align=left;verticalAlign=top;spacingLeft=4;spacingRight=4;whiteSpace=wrap;overflow=hidden;rotatable=0;points=[[0,0.5],[1,0.5]];portConstraint=eastwest;" vertex="1" parent="bnMnMu4cnoLyWOuvSoI_-19">
          <mxGeometry y="26" width="160" height="26" as="geometry" />
        </mxCell>
        <mxCell id="bnMnMu4cnoLyWOuvSoI_-21" value="Username" style="text;html=1;strokeColor=none;fillColor=none;align=left;verticalAlign=top;spacingLeft=4;spacingRight=4;whiteSpace=wrap;overflow=hidden;rotatable=0;points=[[0,0.5],[1,0.5]];portConstraint=eastwest;" vertex="1" parent="bnMnMu4cnoLyWOuvSoI_-19">
          <mxGeometry y="52" width="160" height="26" as="geometry" />
        </mxCell>
        <mxCell id="bnMnMu4cnoLyWOuvSoI_-22" value="Email" style="text;html=1;strokeColor=none;fillColor=none;align=left;verticalAlign=top;spacingLeft=4;spacingRight=4;whiteSpace=wrap;overflow=hidden;rotatable=0;points=[[0,0.5],[1,0.5]];portConstraint=eastwest;" vertex="1" parent="bnMnMu4cnoLyWOuvSoI_-19">
          <mxGeometry y="78" width="160" height="26" as="geometry" />
        </mxCell>
        <mxCell id="bnMnMu4cnoLyWOuvSoI_-23" value="Password" style="text;html=1;strokeColor=none;fillColor=none;align=left;verticalAlign=top;spacingLeft=4;spacingRight=4;whiteSpace=wrap;overflow=hidden;rotatable=0;points=[[0,0.5],[1,0.5]];portConstraint=eastwest;" vertex="1" parent="bnMnMu4cnoLyWOuvSoI_-19">
          <mxGeometry y="104" width="160" height="26" as="geometry" />
        </mxCell>
        <mxCell id="bnMnMu4cnoLyWOuvSoI_-25" value="TrainerAvailability" style="swimlane;html=1;fontStyle=0;childLayout=stackLayout;horizontal=1;startSize=26;fillColor=none;horizontalStack=0;resizeParent=1;resizeLast=0;collapsible=1;marginBottom=0;swimlaneFillColor=#ffffff;rounded=0;shadow=0;comic=0;labelBackgroundColor=none;strokeWidth=1;fontFamily=Verdana;fontSize=10;align=center;" vertex="1" parent="1">
          <mxGeometry x="460" y="740" width="160" height="140" as="geometry" />
        </mxCell>
        <mxCell id="bnMnMu4cnoLyWOuvSoI_-26" value="&lt;u&gt;AvailabilityID&lt;/u&gt;" style="text;html=1;strokeColor=none;fillColor=none;align=left;verticalAlign=top;spacingLeft=4;spacingRight=4;whiteSpace=wrap;overflow=hidden;rotatable=0;points=[[0,0.5],[1,0.5]];portConstraint=eastwest;" vertex="1" parent="bnMnMu4cnoLyWOuvSoI_-25">
          <mxGeometry y="26" width="160" height="26" as="geometry" />
        </mxCell>
        <mxCell id="bnMnMu4cnoLyWOuvSoI_-27" value="AvailableFrom" style="text;html=1;strokeColor=none;fillColor=none;align=left;verticalAlign=top;spacingLeft=4;spacingRight=4;whiteSpace=wrap;overflow=hidden;rotatable=0;points=[[0,0.5],[1,0.5]];portConstraint=eastwest;" vertex="1" parent="bnMnMu4cnoLyWOuvSoI_-25">
          <mxGeometry y="52" width="160" height="26" as="geometry" />
        </mxCell>
        <mxCell id="bnMnMu4cnoLyWOuvSoI_-28" value="AvailableTo" style="text;html=1;strokeColor=none;fillColor=none;align=left;verticalAlign=top;spacingLeft=4;spacingRight=4;whiteSpace=wrap;overflow=hidden;rotatable=0;points=[[0,0.5],[1,0.5]];portConstraint=eastwest;" vertex="1" parent="bnMnMu4cnoLyWOuvSoI_-25">
          <mxGeometry y="78" width="160" height="26" as="geometry" />
        </mxCell>
        <mxCell id="bnMnMu4cnoLyWOuvSoI_-29" value="Status" style="text;html=1;strokeColor=none;fillColor=none;align=left;verticalAlign=top;spacingLeft=4;spacingRight=4;whiteSpace=wrap;overflow=hidden;rotatable=0;points=[[0,0.5],[1,0.5]];portConstraint=eastwest;" vertex="1" parent="bnMnMu4cnoLyWOuvSoI_-25">
          <mxGeometry y="104" width="160" height="26" as="geometry" />
        </mxCell>
        <mxCell id="bnMnMu4cnoLyWOuvSoI_-32" value="Rooms" style="swimlane;html=1;fontStyle=0;childLayout=stackLayout;horizontal=1;startSize=26;fillColor=none;horizontalStack=0;resizeParent=1;resizeLast=0;collapsible=1;marginBottom=0;swimlaneFillColor=#ffffff;rounded=0;shadow=0;comic=0;labelBackgroundColor=none;strokeWidth=1;fontFamily=Verdana;fontSize=10;align=center;" vertex="1" parent="1">
          <mxGeometry x="710" y="540" width="160" height="110" as="geometry" />
        </mxCell>
        <mxCell id="bnMnMu4cnoLyWOuvSoI_-33" value="&lt;u&gt;RoomID&lt;/u&gt;" style="text;html=1;strokeColor=none;fillColor=none;align=left;verticalAlign=top;spacingLeft=4;spacingRight=4;whiteSpace=wrap;overflow=hidden;rotatable=0;points=[[0,0.5],[1,0.5]];portConstraint=eastwest;" vertex="1" parent="bnMnMu4cnoLyWOuvSoI_-32">
          <mxGeometry y="26" width="160" height="26" as="geometry" />
        </mxCell>
        <mxCell id="bnMnMu4cnoLyWOuvSoI_-34" value="RoomName" style="text;html=1;strokeColor=none;fillColor=none;align=left;verticalAlign=top;spacingLeft=4;spacingRight=4;whiteSpace=wrap;overflow=hidden;rotatable=0;points=[[0,0.5],[1,0.5]];portConstraint=eastwest;" vertex="1" parent="bnMnMu4cnoLyWOuvSoI_-32">
          <mxGeometry y="52" width="160" height="26" as="geometry" />
        </mxCell>
        <mxCell id="bnMnMu4cnoLyWOuvSoI_-35" value="Capacity" style="text;html=1;strokeColor=none;fillColor=none;align=left;verticalAlign=top;spacingLeft=4;spacingRight=4;whiteSpace=wrap;overflow=hidden;rotatable=0;points=[[0,0.5],[1,0.5]];portConstraint=eastwest;" vertex="1" parent="bnMnMu4cnoLyWOuvSoI_-32">
          <mxGeometry y="78" width="160" height="26" as="geometry" />
        </mxCell>
        <mxCell id="bnMnMu4cnoLyWOuvSoI_-102" style="edgeStyle=orthogonalEdgeStyle;rounded=0;orthogonalLoop=1;jettySize=auto;html=1;entryX=1;entryY=0.5;entryDx=0;entryDy=0;endArrow=none;endFill=0;" edge="1" parent="1" source="bnMnMu4cnoLyWOuvSoI_-37" target="bnMnMu4cnoLyWOuvSoI_-101">
          <mxGeometry relative="1" as="geometry">
            <Array as="points">
              <mxPoint x="990" y="770" />
            </Array>
          </mxGeometry>
        </mxCell>
        <mxCell id="bnMnMu4cnoLyWOuvSoI_-105" value="N" style="edgeLabel;html=1;align=center;verticalAlign=middle;resizable=0;points=[];" vertex="1" connectable="0" parent="bnMnMu4cnoLyWOuvSoI_-102">
          <mxGeometry x="-0.8812" y="3" relative="1" as="geometry">
            <mxPoint x="7" y="-7" as="offset" />
          </mxGeometry>
        </mxCell>
        <mxCell id="bnMnMu4cnoLyWOuvSoI_-37" value="Classes" style="swimlane;html=1;fontStyle=0;childLayout=stackLayout;horizontal=1;startSize=26;fillColor=none;horizontalStack=0;resizeParent=1;resizeLast=0;collapsible=1;marginBottom=0;swimlaneFillColor=#ffffff;rounded=0;shadow=0;comic=0;labelBackgroundColor=none;strokeWidth=1;fontFamily=Verdana;fontSize=10;align=center;" vertex="1" parent="1">
          <mxGeometry x="895" y="480" width="160" height="140" as="geometry" />
        </mxCell>
        <mxCell id="bnMnMu4cnoLyWOuvSoI_-38" value="&lt;u&gt;ClassID&lt;/u&gt;" style="text;html=1;strokeColor=none;fillColor=none;align=left;verticalAlign=top;spacingLeft=4;spacingRight=4;whiteSpace=wrap;overflow=hidden;rotatable=0;points=[[0,0.5],[1,0.5]];portConstraint=eastwest;" vertex="1" parent="bnMnMu4cnoLyWOuvSoI_-37">
          <mxGeometry y="26" width="160" height="26" as="geometry" />
        </mxCell>
        <mxCell id="bnMnMu4cnoLyWOuvSoI_-39" value="ClassName" style="text;html=1;strokeColor=none;fillColor=none;align=left;verticalAlign=top;spacingLeft=4;spacingRight=4;whiteSpace=wrap;overflow=hidden;rotatable=0;points=[[0,0.5],[1,0.5]];portConstraint=eastwest;" vertex="1" parent="bnMnMu4cnoLyWOuvSoI_-37">
          <mxGeometry y="52" width="160" height="26" as="geometry" />
        </mxCell>
        <mxCell id="bnMnMu4cnoLyWOuvSoI_-47" value="Schedule" style="text;html=1;strokeColor=none;fillColor=none;align=left;verticalAlign=top;spacingLeft=4;spacingRight=4;whiteSpace=wrap;overflow=hidden;rotatable=0;points=[[0,0.5],[1,0.5]];portConstraint=eastwest;" vertex="1" parent="bnMnMu4cnoLyWOuvSoI_-37">
          <mxGeometry y="78" width="160" height="26" as="geometry" />
        </mxCell>
        <mxCell id="bnMnMu4cnoLyWOuvSoI_-48" value="Capacity" style="text;html=1;strokeColor=none;fillColor=none;align=left;verticalAlign=top;spacingLeft=4;spacingRight=4;whiteSpace=wrap;overflow=hidden;rotatable=0;points=[[0,0.5],[1,0.5]];portConstraint=eastwest;" vertex="1" parent="bnMnMu4cnoLyWOuvSoI_-37">
          <mxGeometry y="104" width="160" height="26" as="geometry" />
        </mxCell>
        <mxCell id="bnMnMu4cnoLyWOuvSoI_-51" value="Payments" style="swimlane;html=1;fontStyle=0;childLayout=stackLayout;horizontal=1;startSize=26;fillColor=none;horizontalStack=0;resizeParent=1;resizeLast=0;collapsible=1;marginBottom=0;swimlaneFillColor=#ffffff;rounded=0;shadow=0;comic=0;labelBackgroundColor=none;strokeWidth=1;fontFamily=Verdana;fontSize=10;align=center;" vertex="1" parent="1">
          <mxGeometry x="1225" y="630" width="160" height="140" as="geometry" />
        </mxCell>
        <mxCell id="bnMnMu4cnoLyWOuvSoI_-52" value="&lt;u&gt;PaymentID&lt;/u&gt;" style="text;html=1;strokeColor=none;fillColor=none;align=left;verticalAlign=top;spacingLeft=4;spacingRight=4;whiteSpace=wrap;overflow=hidden;rotatable=0;points=[[0,0.5],[1,0.5]];portConstraint=eastwest;" vertex="1" parent="bnMnMu4cnoLyWOuvSoI_-51">
          <mxGeometry y="26" width="160" height="26" as="geometry" />
        </mxCell>
        <mxCell id="bnMnMu4cnoLyWOuvSoI_-53" value="Amount" style="text;html=1;strokeColor=none;fillColor=none;align=left;verticalAlign=top;spacingLeft=4;spacingRight=4;whiteSpace=wrap;overflow=hidden;rotatable=0;points=[[0,0.5],[1,0.5]];portConstraint=eastwest;" vertex="1" parent="bnMnMu4cnoLyWOuvSoI_-51">
          <mxGeometry y="52" width="160" height="26" as="geometry" />
        </mxCell>
        <mxCell id="bnMnMu4cnoLyWOuvSoI_-54" value="PaymentDate" style="text;html=1;strokeColor=none;fillColor=none;align=left;verticalAlign=top;spacingLeft=4;spacingRight=4;whiteSpace=wrap;overflow=hidden;rotatable=0;points=[[0,0.5],[1,0.5]];portConstraint=eastwest;" vertex="1" parent="bnMnMu4cnoLyWOuvSoI_-51">
          <mxGeometry y="78" width="160" height="26" as="geometry" />
        </mxCell>
        <mxCell id="bnMnMu4cnoLyWOuvSoI_-55" value="Service" style="text;html=1;strokeColor=none;fillColor=none;align=left;verticalAlign=top;spacingLeft=4;spacingRight=4;whiteSpace=wrap;overflow=hidden;rotatable=0;points=[[0,0.5],[1,0.5]];portConstraint=eastwest;" vertex="1" parent="bnMnMu4cnoLyWOuvSoI_-51">
          <mxGeometry y="104" width="160" height="26" as="geometry" />
        </mxCell>
        <mxCell id="bnMnMu4cnoLyWOuvSoI_-58" style="edgeStyle=orthogonalEdgeStyle;rounded=0;orthogonalLoop=1;jettySize=auto;html=1;endArrow=none;endFill=0;" edge="1" parent="1" source="bnMnMu4cnoLyWOuvSoI_-56" target="bnMnMu4cnoLyWOuvSoI_-25">
          <mxGeometry relative="1" as="geometry" />
        </mxCell>
        <mxCell id="bnMnMu4cnoLyWOuvSoI_-59" value="N" style="edgeLabel;html=1;align=center;verticalAlign=middle;resizable=0;points=[];" vertex="1" connectable="0" parent="bnMnMu4cnoLyWOuvSoI_-58">
          <mxGeometry x="0.349" y="3" relative="1" as="geometry">
            <mxPoint x="12" as="offset" />
          </mxGeometry>
        </mxCell>
        <mxCell id="bnMnMu4cnoLyWOuvSoI_-56" value="has" style="rhombus;whiteSpace=wrap;html=1;container=1;" vertex="1" parent="1">
          <mxGeometry x="485" y="600" width="110" height="80" as="geometry" />
        </mxCell>
        <mxCell id="bnMnMu4cnoLyWOuvSoI_-65" style="edgeStyle=orthogonalEdgeStyle;rounded=0;orthogonalLoop=1;jettySize=auto;html=1;entryX=0.5;entryY=1;entryDx=0;entryDy=0;endArrow=none;endFill=0;" edge="1" parent="1" source="bnMnMu4cnoLyWOuvSoI_-62" target="17acba5748e5396b-20">
          <mxGeometry relative="1" as="geometry" />
        </mxCell>
        <mxCell id="bnMnMu4cnoLyWOuvSoI_-67" value="N" style="edgeLabel;html=1;align=center;verticalAlign=middle;resizable=0;points=[];" vertex="1" connectable="0" parent="bnMnMu4cnoLyWOuvSoI_-65">
          <mxGeometry x="0.5496" y="-2" relative="1" as="geometry">
            <mxPoint x="8" as="offset" />
          </mxGeometry>
        </mxCell>
        <mxCell id="bnMnMu4cnoLyWOuvSoI_-68" style="edgeStyle=orthogonalEdgeStyle;rounded=0;orthogonalLoop=1;jettySize=auto;html=1;entryX=0.5;entryY=0;entryDx=0;entryDy=0;endArrow=none;endFill=0;" edge="1" parent="1" source="bnMnMu4cnoLyWOuvSoI_-62" target="bnMnMu4cnoLyWOuvSoI_-51">
          <mxGeometry relative="1" as="geometry" />
        </mxCell>
        <mxCell id="bnMnMu4cnoLyWOuvSoI_-69" value="1" style="edgeLabel;html=1;align=center;verticalAlign=middle;resizable=0;points=[];" vertex="1" connectable="0" parent="bnMnMu4cnoLyWOuvSoI_-68">
          <mxGeometry x="0.8163" y="2" relative="1" as="geometry">
            <mxPoint x="8" y="4" as="offset" />
          </mxGeometry>
        </mxCell>
        <mxCell id="bnMnMu4cnoLyWOuvSoI_-62" value="do" style="rhombus;whiteSpace=wrap;html=1;" vertex="1" parent="1">
          <mxGeometry x="1100" y="530" width="110" height="80" as="geometry" />
        </mxCell>
        <mxCell id="bnMnMu4cnoLyWOuvSoI_-71" style="edgeStyle=orthogonalEdgeStyle;rounded=0;orthogonalLoop=1;jettySize=auto;html=1;" edge="1" parent="1" source="bnMnMu4cnoLyWOuvSoI_-70" target="bnMnMu4cnoLyWOuvSoI_-19">
          <mxGeometry relative="1" as="geometry" />
        </mxCell>
        <mxCell id="bnMnMu4cnoLyWOuvSoI_-73" value="1" style="edgeLabel;html=1;align=center;verticalAlign=middle;resizable=0;points=[];" vertex="1" connectable="0" parent="bnMnMu4cnoLyWOuvSoI_-71">
          <mxGeometry x="0.349" relative="1" as="geometry">
            <mxPoint x="15" as="offset" />
          </mxGeometry>
        </mxCell>
        <mxCell id="bnMnMu4cnoLyWOuvSoI_-72" style="edgeStyle=orthogonalEdgeStyle;rounded=0;orthogonalLoop=1;jettySize=auto;html=1;entryX=0;entryY=0.5;entryDx=0;entryDy=0;" edge="1" parent="1" source="bnMnMu4cnoLyWOuvSoI_-70" target="bnMnMu4cnoLyWOuvSoI_-54">
          <mxGeometry relative="1" as="geometry" />
        </mxCell>
        <mxCell id="bnMnMu4cnoLyWOuvSoI_-74" value="1" style="edgeLabel;html=1;align=center;verticalAlign=middle;resizable=0;points=[];" vertex="1" connectable="0" parent="bnMnMu4cnoLyWOuvSoI_-72">
          <mxGeometry x="0.3015" y="4" relative="1" as="geometry">
            <mxPoint x="10" y="-9" as="offset" />
          </mxGeometry>
        </mxCell>
        <mxCell id="bnMnMu4cnoLyWOuvSoI_-70" value="processed by" style="rhombus;whiteSpace=wrap;html=1;" vertex="1" parent="1">
          <mxGeometry x="1045" y="680" width="110" height="80" as="geometry" />
        </mxCell>
        <mxCell id="bnMnMu4cnoLyWOuvSoI_-75" value="Equipment" style="swimlane;html=1;fontStyle=0;childLayout=stackLayout;horizontal=1;startSize=26;fillColor=none;horizontalStack=0;resizeParent=1;resizeLast=0;collapsible=1;marginBottom=0;swimlaneFillColor=#ffffff;rounded=0;shadow=0;comic=0;labelBackgroundColor=none;strokeWidth=1;fontFamily=Verdana;fontSize=10;align=center;" vertex="1" parent="1">
          <mxGeometry x="620" y="950" width="160" height="110" as="geometry" />
        </mxCell>
        <mxCell id="bnMnMu4cnoLyWOuvSoI_-76" value="&lt;u&gt;EquipmentID&lt;/u&gt;" style="text;html=1;strokeColor=none;fillColor=none;align=left;verticalAlign=top;spacingLeft=4;spacingRight=4;whiteSpace=wrap;overflow=hidden;rotatable=0;points=[[0,0.5],[1,0.5]];portConstraint=eastwest;" vertex="1" parent="bnMnMu4cnoLyWOuvSoI_-75">
          <mxGeometry y="26" width="160" height="26" as="geometry" />
        </mxCell>
        <mxCell id="bnMnMu4cnoLyWOuvSoI_-77" value="EquitmentName" style="text;html=1;strokeColor=none;fillColor=none;align=left;verticalAlign=top;spacingLeft=4;spacingRight=4;whiteSpace=wrap;overflow=hidden;rotatable=0;points=[[0,0.5],[1,0.5]];portConstraint=eastwest;" vertex="1" parent="bnMnMu4cnoLyWOuvSoI_-75">
          <mxGeometry y="52" width="160" height="26" as="geometry" />
        </mxCell>
        <mxCell id="bnMnMu4cnoLyWOuvSoI_-78" value="Status" style="text;html=1;strokeColor=none;fillColor=none;align=left;verticalAlign=top;spacingLeft=4;spacingRight=4;whiteSpace=wrap;overflow=hidden;rotatable=0;points=[[0,0.5],[1,0.5]];portConstraint=eastwest;" vertex="1" parent="bnMnMu4cnoLyWOuvSoI_-75">
          <mxGeometry y="78" width="160" height="26" as="geometry" />
        </mxCell>
        <mxCell id="bnMnMu4cnoLyWOuvSoI_-86" style="edgeStyle=orthogonalEdgeStyle;rounded=0;orthogonalLoop=1;jettySize=auto;html=1;entryX=0.5;entryY=0;entryDx=0;entryDy=0;endArrow=none;endFill=0;" edge="1" parent="1" source="bnMnMu4cnoLyWOuvSoI_-79" target="bnMnMu4cnoLyWOuvSoI_-85">
          <mxGeometry relative="1" as="geometry" />
        </mxCell>
        <mxCell id="bnMnMu4cnoLyWOuvSoI_-89" value="1" style="edgeLabel;html=1;align=center;verticalAlign=middle;resizable=0;points=[];" vertex="1" connectable="0" parent="bnMnMu4cnoLyWOuvSoI_-86">
          <mxGeometry x="-0.6168" y="4" relative="1" as="geometry">
            <mxPoint x="1" y="-3" as="offset" />
          </mxGeometry>
        </mxCell>
        <mxCell id="bnMnMu4cnoLyWOuvSoI_-79" value="Bookings" style="swimlane;html=1;fontStyle=0;childLayout=stackLayout;horizontal=1;startSize=26;fillColor=none;horizontalStack=0;resizeParent=1;resizeLast=0;collapsible=1;marginBottom=0;swimlaneFillColor=#ffffff;rounded=0;shadow=0;comic=0;labelBackgroundColor=none;strokeWidth=1;fontFamily=Verdana;fontSize=10;align=center;" vertex="1" parent="1">
          <mxGeometry x="710" y="200" width="160" height="110" as="geometry" />
        </mxCell>
        <mxCell id="bnMnMu4cnoLyWOuvSoI_-80" value="&lt;u&gt;BookingID&lt;/u&gt;" style="text;html=1;strokeColor=none;fillColor=none;align=left;verticalAlign=top;spacingLeft=4;spacingRight=4;whiteSpace=wrap;overflow=hidden;rotatable=0;points=[[0,0.5],[1,0.5]];portConstraint=eastwest;" vertex="1" parent="bnMnMu4cnoLyWOuvSoI_-79">
          <mxGeometry y="26" width="160" height="26" as="geometry" />
        </mxCell>
        <mxCell id="bnMnMu4cnoLyWOuvSoI_-81" value="Date" style="text;html=1;strokeColor=none;fillColor=none;align=left;verticalAlign=top;spacingLeft=4;spacingRight=4;whiteSpace=wrap;overflow=hidden;rotatable=0;points=[[0,0.5],[1,0.5]];portConstraint=eastwest;" vertex="1" parent="bnMnMu4cnoLyWOuvSoI_-79">
          <mxGeometry y="52" width="160" height="26" as="geometry" />
        </mxCell>
        <mxCell id="bnMnMu4cnoLyWOuvSoI_-82" value="Time" style="text;html=1;strokeColor=none;fillColor=none;align=left;verticalAlign=top;spacingLeft=4;spacingRight=4;whiteSpace=wrap;overflow=hidden;rotatable=0;points=[[0,0.5],[1,0.5]];portConstraint=eastwest;" vertex="1" parent="bnMnMu4cnoLyWOuvSoI_-79">
          <mxGeometry y="78" width="160" height="26" as="geometry" />
        </mxCell>
        <mxCell id="bnMnMu4cnoLyWOuvSoI_-87" style="edgeStyle=orthogonalEdgeStyle;rounded=0;orthogonalLoop=1;jettySize=auto;html=1;entryX=0.5;entryY=0;entryDx=0;entryDy=0;endArrow=none;endFill=0;" edge="1" parent="1" source="bnMnMu4cnoLyWOuvSoI_-85" target="bnMnMu4cnoLyWOuvSoI_-32">
          <mxGeometry relative="1" as="geometry">
            <mxPoint x="790" y="500" as="targetPoint" />
          </mxGeometry>
        </mxCell>
        <mxCell id="bnMnMu4cnoLyWOuvSoI_-88" value="1" style="edgeLabel;html=1;align=center;verticalAlign=middle;resizable=0;points=[];" vertex="1" connectable="0" parent="bnMnMu4cnoLyWOuvSoI_-87">
          <mxGeometry x="-0.0618" y="-2" relative="1" as="geometry">
            <mxPoint x="17" y="27" as="offset" />
          </mxGeometry>
        </mxCell>
        <mxCell id="bnMnMu4cnoLyWOuvSoI_-90" style="edgeStyle=orthogonalEdgeStyle;rounded=0;orthogonalLoop=1;jettySize=auto;html=1;entryX=1;entryY=0.5;entryDx=0;entryDy=0;endArrow=none;endFill=0;" edge="1" parent="1" source="bnMnMu4cnoLyWOuvSoI_-85" target="bnMnMu4cnoLyWOuvSoI_-10">
          <mxGeometry relative="1" as="geometry">
            <mxPoint x="690" y="450" as="targetPoint" />
          </mxGeometry>
        </mxCell>
        <mxCell id="bnMnMu4cnoLyWOuvSoI_-91" value="1" style="edgeLabel;html=1;align=center;verticalAlign=middle;resizable=0;points=[];" vertex="1" connectable="0" parent="bnMnMu4cnoLyWOuvSoI_-90">
          <mxGeometry x="-0.1608" y="3" relative="1" as="geometry">
            <mxPoint x="-47" y="8" as="offset" />
          </mxGeometry>
        </mxCell>
        <mxCell id="bnMnMu4cnoLyWOuvSoI_-99" style="edgeStyle=orthogonalEdgeStyle;rounded=0;orthogonalLoop=1;jettySize=auto;html=1;entryX=0.5;entryY=0;entryDx=0;entryDy=0;endArrow=none;endFill=0;" edge="1" parent="1" source="bnMnMu4cnoLyWOuvSoI_-85" target="bnMnMu4cnoLyWOuvSoI_-37">
          <mxGeometry relative="1" as="geometry" />
        </mxCell>
        <mxCell id="bnMnMu4cnoLyWOuvSoI_-100" value="1" style="edgeLabel;html=1;align=center;verticalAlign=middle;resizable=0;points=[];" vertex="1" connectable="0" parent="bnMnMu4cnoLyWOuvSoI_-99">
          <mxGeometry x="0.8502" y="4" relative="1" as="geometry">
            <mxPoint x="1" y="6" as="offset" />
          </mxGeometry>
        </mxCell>
        <mxCell id="bnMnMu4cnoLyWOuvSoI_-85" value="needs" style="rhombus;whiteSpace=wrap;html=1;container=1;" vertex="1" parent="1">
          <mxGeometry x="735" y="380" width="110" height="80" as="geometry" />
        </mxCell>
        <mxCell id="bnMnMu4cnoLyWOuvSoI_-92" value="makes" style="rhombus;whiteSpace=wrap;html=1;container=1;" vertex="1" parent="1">
          <mxGeometry x="920" y="280" width="110" height="80" as="geometry" />
        </mxCell>
        <mxCell id="bnMnMu4cnoLyWOuvSoI_-93" style="edgeStyle=orthogonalEdgeStyle;rounded=0;orthogonalLoop=1;jettySize=auto;html=1;entryX=1;entryY=0.5;entryDx=0;entryDy=0;endArrow=none;endFill=0;" edge="1" parent="1" source="17acba5748e5396b-24" target="bnMnMu4cnoLyWOuvSoI_-92">
          <mxGeometry relative="1" as="geometry" />
        </mxCell>
        <mxCell id="bnMnMu4cnoLyWOuvSoI_-95" value="1" style="edgeLabel;html=1;align=center;verticalAlign=middle;resizable=0;points=[];" vertex="1" connectable="0" parent="bnMnMu4cnoLyWOuvSoI_-93">
          <mxGeometry x="-0.6365" relative="1" as="geometry">
            <mxPoint y="-13" as="offset" />
          </mxGeometry>
        </mxCell>
        <mxCell id="bnMnMu4cnoLyWOuvSoI_-94" style="edgeStyle=orthogonalEdgeStyle;rounded=0;orthogonalLoop=1;jettySize=auto;html=1;entryX=0.999;entryY=0.077;entryDx=0;entryDy=0;entryPerimeter=0;endArrow=none;endFill=0;" edge="1" parent="1" source="bnMnMu4cnoLyWOuvSoI_-92" target="bnMnMu4cnoLyWOuvSoI_-81">
          <mxGeometry relative="1" as="geometry" />
        </mxCell>
        <mxCell id="bnMnMu4cnoLyWOuvSoI_-96" value="N" style="edgeLabel;html=1;align=center;verticalAlign=middle;resizable=0;points=[];" vertex="1" connectable="0" parent="bnMnMu4cnoLyWOuvSoI_-94">
          <mxGeometry x="0.7484" y="-1" relative="1" as="geometry">
            <mxPoint x="-6" y="-7" as="offset" />
          </mxGeometry>
        </mxCell>
        <mxCell id="bnMnMu4cnoLyWOuvSoI_-103" style="edgeStyle=orthogonalEdgeStyle;rounded=0;orthogonalLoop=1;jettySize=auto;html=1;endArrow=none;endFill=0;" edge="1" parent="1" source="bnMnMu4cnoLyWOuvSoI_-101" target="bnMnMu4cnoLyWOuvSoI_-14">
          <mxGeometry relative="1" as="geometry">
            <Array as="points">
              <mxPoint x="670" y="770" />
              <mxPoint x="670" y="525" />
            </Array>
          </mxGeometry>
        </mxCell>
        <mxCell id="bnMnMu4cnoLyWOuvSoI_-104" value="1" style="edgeLabel;html=1;align=center;verticalAlign=middle;resizable=0;points=[];" vertex="1" connectable="0" parent="bnMnMu4cnoLyWOuvSoI_-103">
          <mxGeometry x="0.9451" y="1" relative="1" as="geometry">
            <mxPoint x="1" y="-16" as="offset" />
          </mxGeometry>
        </mxCell>
        <mxCell id="bnMnMu4cnoLyWOuvSoI_-101" value="held by" style="rhombus;whiteSpace=wrap;html=1;container=1;" vertex="1" parent="1">
          <mxGeometry x="735" y="730" width="110" height="80" as="geometry" />
        </mxCell>
        <mxCell id="bnMnMu4cnoLyWOuvSoI_-108" style="edgeStyle=orthogonalEdgeStyle;rounded=0;orthogonalLoop=1;jettySize=auto;html=1;entryX=0.5;entryY=0;entryDx=0;entryDy=0;endArrow=none;endFill=0;" edge="1" parent="1" source="bnMnMu4cnoLyWOuvSoI_-107" target="bnMnMu4cnoLyWOuvSoI_-75">
          <mxGeometry relative="1" as="geometry" />
        </mxCell>
        <mxCell id="bnMnMu4cnoLyWOuvSoI_-111" value="M" style="edgeLabel;html=1;align=center;verticalAlign=middle;resizable=0;points=[];" vertex="1" connectable="0" parent="bnMnMu4cnoLyWOuvSoI_-108">
          <mxGeometry x="0.7559" y="-1" relative="1" as="geometry">
            <mxPoint x="11" y="7" as="offset" />
          </mxGeometry>
        </mxCell>
        <mxCell id="bnMnMu4cnoLyWOuvSoI_-109" style="edgeStyle=orthogonalEdgeStyle;rounded=0;orthogonalLoop=1;jettySize=auto;html=1;entryX=0;entryY=0.5;entryDx=0;entryDy=0;endArrow=none;endFill=0;" edge="1" parent="1" source="bnMnMu4cnoLyWOuvSoI_-107" target="bnMnMu4cnoLyWOuvSoI_-20">
          <mxGeometry relative="1" as="geometry" />
        </mxCell>
        <mxCell id="bnMnMu4cnoLyWOuvSoI_-110" value="N" style="edgeLabel;html=1;align=center;verticalAlign=middle;resizable=0;points=[];" vertex="1" connectable="0" parent="bnMnMu4cnoLyWOuvSoI_-109">
          <mxGeometry x="0.6892" y="3" relative="1" as="geometry">
            <mxPoint x="4" y="-10" as="offset" />
          </mxGeometry>
        </mxCell>
        <mxCell id="bnMnMu4cnoLyWOuvSoI_-113" style="edgeStyle=orthogonalEdgeStyle;rounded=0;orthogonalLoop=1;jettySize=auto;html=1;entryX=0.352;entryY=-0.001;entryDx=0;entryDy=0;entryPerimeter=0;endArrow=none;endFill=0;" edge="1" parent="1" source="bnMnMu4cnoLyWOuvSoI_-107" target="bnMnMu4cnoLyWOuvSoI_-79">
          <mxGeometry relative="1" as="geometry">
            <mxPoint x="690" y="390" as="targetPoint" />
            <Array as="points">
              <mxPoint x="885" y="1020" />
              <mxPoint x="1500" y="1020" />
              <mxPoint x="1500" y="110" />
              <mxPoint x="766" y="110" />
            </Array>
          </mxGeometry>
        </mxCell>
        <mxCell id="bnMnMu4cnoLyWOuvSoI_-114" value="M" style="edgeLabel;html=1;align=center;verticalAlign=middle;resizable=0;points=[];" vertex="1" connectable="0" parent="bnMnMu4cnoLyWOuvSoI_-113">
          <mxGeometry x="0.9844" y="-1" relative="1" as="geometry">
            <mxPoint x="15" y="9" as="offset" />
          </mxGeometry>
        </mxCell>
        <mxCell id="bnMnMu4cnoLyWOuvSoI_-107" value="manages" style="rhombus;whiteSpace=wrap;html=1;" vertex="1" parent="1">
          <mxGeometry x="830" y="880" width="110" height="80" as="geometry" />
        </mxCell>
      </root>
    </mxGraphModel>
  </diagram>
</mxfile>
